<svg width="99" height="52" viewBox="0 0 99 52" fill="none" xmlns="http://www.w3.org/2000/svg">
<path d="M49.4072 50.6499C49.4072 34.7082 36.4839 21.7849 20.5422 21.7849H0.999592C0.999592 37.7266 13.9229 50.6499 29.8646 50.6499H49.4072Z" fill="#1D8583" fill-opacity="0.85"/>
<path d="M49.5928 50.6499C49.5928 34.7082 62.5161 21.7849 78.4578 21.7849H98.0004C98.0004 37.7266 85.0771 50.6499 69.1354 50.6499H49.5928Z" fill="#1D8583" fill-opacity="0.85"/>
<path d="M22.7119 0C37.8433 0 50.1097 12.2664 50.1097 27.3978V51C34.9783 51 22.7119 38.7335 22.7119 23.6021V0Z" fill="#1D8583" fill-opacity="0.85"/>
<path d="M49.5928 50.9999C64.7242 50.9999 76.9906 38.7334 76.9906 23.602V-8.39233e-05C61.8592 -8.39233e-05 49.5928 12.2663 49.5928 27.3977V50.9999Z" fill="#1D8583" fill-opacity="0.85"/>
<path d="M1 21.7849C1.42923 28.1566 2.54836 31.7558 6.1694 38.1236C10.8431 44.7869 13.9776 46.9282 20.1268 49.0161L29.9486 50.6499H45.9738C49.5924 47.3822 52.5 39 52.5 39C54.62 31.5806 57 30.9242 61.5 27.5652C65.0612 24.9069 66.9828 23.8701 72.8547 21.7849H76.9902H97.6678C96.98 29.055 96.129 32.822 92.4984 38.1236C89.4402 43.1592 86.7461 45.5024 80.6088 49.0161C77.8275 50.0986 76.1168 50.5557 72.3377 50.6499H53.2109C49.4333 47.3699 45.9738 38.4348 45.9738 38.4348C44.0972 32.3004 42.8721 31.3547 36.6689 26.4531L26.847 21.7849H22.7115H1Z" stroke="#18706E"/>
</svg>
